<svg xmlns="http://www.w3.org/2000/svg" width="45.895" height="48.902" viewBox="0 0 45.895 48.902" fill="none">
  <path d="M 4.93 48.902 L 5.727 37.6 C 2.035 33.465 -0.001 28.144 0 22.634 C 0.001 17.123 2.039 11.803 5.733 7.669 C 9.426 3.535 14.521 0.872 20.062 0.18 C 25.604 -0.513 31.211 0.812 35.833 3.906 C 40.455 7 43.774 11.651 45.168 16.987 C 46.562 22.323 45.936 27.977 43.406 32.89 C 40.877 37.803 36.618 41.637 31.427 43.673 C 26.237 45.709 20.472 45.808 15.213 43.951 L 4.93 48.902 Z M 22.97 0.845 C 18.709 0.839 14.537 2.053 10.961 4.339 C 7.384 6.625 4.556 9.884 2.819 13.723 C 1.082 17.561 0.51 21.815 1.173 25.967 C 1.836 30.12 3.705 33.994 6.554 37.12 L 6.689 37.265 L 5.997 47.329 L 15.149 42.921 L 15.336 42.991 C 18.36 44.09 21.592 44.522 24.804 44.256 C 28.015 43.991 31.129 43.033 33.924 41.452 C 36.72 39.87 39.131 37.704 40.986 35.104 C 42.841 32.504 44.096 29.534 44.662 26.405 C 45.228 23.275 45.091 20.06 44.262 16.988 C 43.432 13.916 41.93 11.06 39.86 8.623 C 37.791 6.185 35.205 4.225 32.285 2.88 C 29.365 1.535 26.181 0.838 22.958 0.839 L 22.97 0.845 Z" fill="currentColor" fill-rule="nonzero"></path>
</svg>